#format: frame checksums
#version: 2
#hash: MD5
#tb 0: 1/30
#media_type 0: video
#codec_id 0: rawvideo
#dimensions 0: 175x143
#sar 0: 0/1
#stream#, dts,        pts, duration,     size, hash
0,          0,          0,        1,    37697, 7a0356dc950e79744d79c98e391ebee9
0,          1,          1,        1,    37697, 96e221e75c290dd847b8e55865073366
0,          2,          2,        1,    37697, 67638290841837c90f180a01094f9191
0,          3,          3,        1,    37697, 93c8e234e123f7a641c5eb44903b75ab
0,          4,          4,        1,    37697, b4fa5ce6089221863002019d99ae7f9d
0,          5,          5,        1,    37697, 5d3b48fbb681ef2b6a0a5e60c03ee5bd
0,          6,          6,        1,    37697, 26635956a9ed343428b36947723b4b94
0,          7,          7,        1,    37697, 18e9b11e10350ab20b89482c5d1c5cea
0,          8,          8,        1,    37697, 44fe40a7ce85552ccf95a451c5732e57
0,          9,          9,        1,    37697, f38758bf6d522023961d08719e92d3ce
0,         10,         10,        1,    37697, 28a2a9ebb3633a0822c9a283ab1ddea6
0,         11,         11,        1,    37697, 4b4485c9419710ad6d3e6aa11fe3a91b
0,         12,         12,        1,    37697, e3f6850a934c6e3e2fed3026e1e53066
0,         13,         13,        1,    37697, 4acff1abe788a4944474b82d10af172d
0,         14,         14,        1,    37697, 4cbfcc008923e8303df170d4e7b1cf34
0,         15,         15,        1,    37697, dde5de0c676f60b4cea26bbf024bbfb7
0,         16,         16,        1,    37697, fe1b0890eef18cd4989d251dbc3b7ef2
0,         17,         17,        1,    37697, 462303741de9904a13bd46534010f588
0,         18,         18,        1,    37697, 7ab2068505dbccdf522a08a65373b6b6
0,         19,         19,        1,    37697, cb63092b6880bbdbaa40b40d738aa4dd
0,         20,         20,        1,    37697, dca7556869370de600afbda82bb45fae
0,         21,         21,        1,    37697, 5f5cae9db9e3aa3f300706ebc3874987
0,         22,         22,        1,    37697, eaf7ba4f48eb5722c09420f2be4bc5f3
0,         23,         23,        1,    37697, dd5b43b72c8b9c3ad53afef0f8869a68
0,         24,         24,        1,    37697, f5d81cadb4b1f69e9700293e38ea36a2
0,         25,         25,        1,    37697, 1e56a6becf3099db71fbc7a996c4fbba
0,         26,         26,        1,    37697, 7e0676c4af74b59d9560d8b42d400de2
0,         27,         27,        1,    37697, 6717c3c344b45e9e202e808d19c9baa8
0,         28,         28,        1,    37697, 42b92f6fbd4cc5d4cf4f9b364a8a7741
0,         29,         29,        1,    37697, 6caca9fcc03e8b9d326aec18eaaae928
0,         30,         30,        1,    37697, cfa2798d156cabe81160c00939102d90
0,         31,         31,        1,    37697, 5d018cfac7da660819da2e5d25e8126e
0,         32,         32,        1,    37697, 761b7b2b64b22abadb89c58ab294520b
0,         33,         33,        1,    37697, 4e066fa627d4dbf3635148eb6b2a0477
0,         34,         34,        1,    37697, e0d6dd242cb99c7bc9826a05895344c5
0,         35,         35,        1,    37697, 84e7beedcba6da53feb722f30211d2f8
0,         36,         36,        1,    37697, af49b3fcc56b02ca746792b1d3bbe1c8
0,         37,         37,        1,    37697, cdd9f17b4501bc7f7bedb70f2e33f282
0,         38,         38,        1,    37697, 69d853dfd9b09d299faec521acb4e765
0,         39,         39,        1,    37697, c3497292359c1a1de81cd5fb062e5175
0,         40,         40,        1,    37697, 0e3994e4a62d8c922dbde51186615ea7
0,         41,         41,        1,    37697, 86bc5561c72bd17e7473f54f6b6311f1
0,         42,         42,        1,    37697, 0c747481e3dc575c6aad4507f8e62d8e
0,         43,         43,        1,    37697, 6779dfe5b6a7d4ba5ae5355058f54bc9
0,         44,         44,        1,    37697, d7d4e85f48d38c1106a031bd9b57d909
0,         45,         45,        1,    37697, a0ab20a38891925fd77ac2b075f0046f
0,         46,         46,        1,    37697, 88655045ce8c5cb4c4aa3a5071f1beba
0,         47,         47,        1,    37697, 7e849d493185a8f782b53a71151bae26
0,         48,         48,        1,    37697, a5b9a0cbfac73d2227118c0718cf9d14
